<?xml version="1.0" encoding="UTF-8" standalone="no"?>
<svg
   xmlns:dc="http://purl.org/dc/elements/1.1/"
   xmlns:cc="http://creativecommons.org/ns#"
   xmlns:rdf="http://www.w3.org/1999/02/22-rdf-syntax-ns#"
   xmlns:svg="http://www.w3.org/2000/svg"
   xmlns="http://www.w3.org/2000/svg"
   id="svg8"
   version="1.1"
   viewBox="0 0 4600 990"
   height="990mm"
   width="4600mm">
  <defs
     id="defs2" />
  <metadata
     id="metadata5">
    <rdf:RDF>
      <cc:Work
         rdf:about="">
        <dc:format>image/svg+xml</dc:format>
        <dc:type
           rdf:resource="http://purl.org/dc/dcmitype/StillImage" />
        <dc:title></dc:title>
      </cc:Work>
    </rdf:RDF>
  </metadata>
  <g
     style="display:inline"
     id="layer1">
       <rect
       style="fill:none;fill-rule:evenodd;stroke:#000000;stroke-width:40;stroke-miterlimit:4;stroke-dasharray:none;stroke-dashoffset:0;stroke-opacity:1"
       id="rect5344"
       width="4560"
       height="950"
       x="20"
       y="20" />
  </g>
  <g
     style="display:inline"
     id="layer2">
    <path
       id="path977"
       d="m 4220.8027,469.6331 c -7.1074,-3.2805 -7.3506,-3.6959 -8.0037,-13.6641 -1.0004,-15.2688 1.8843,-18.1618 14.4719,-14.5125 5.6301,1.6313 8.3237,1.8035 11.1331,0.7107 3.6968,-1.4381 3.7062,-1.5059 3.9011,-28.0811 0.3712,-50.5985 -0.4826,-100.7506 -1.7344,-101.8722 -0.6907,-0.6197 -4.7052,0.442 -8.921,2.3576 -9.1886,4.1757 -13.3573,4.3756 -17.1238,0.823 -3.1942,-3.0129 -2.6309,-9.4907 1.572,-18.0786 2.8658,-5.8547 5.8966,-7.2018 10.9801,-4.8786 2.2998,1.0506 5.9849,1.3527 9.7581,0.8007 17.6863,-2.5875 17.1576,-2.6253 20.2769,1.4393 2.9874,3.8913 3.5896,10.4135 2.2459,24.3197 -1.1318,11.7118 1.722,12.1038 12.7188,1.7503 5.1146,-4.8153 9.7469,-10.398 10.2943,-12.4048 1.5708,-5.7581 10.5085,-11.3952 23.2321,-14.6525 6.3111,-1.6158 13.478,-2.8974 15.9264,-2.8474 4.9597,0.1 14.4452,6.7443 23.091,16.1739 5.2128,5.686 5.3549,6.1913 6.9556,24.724 1.1729,13.5775 1.0931,32.2202 -0.2831,66.0328 -1.0545,25.9134 -1.5074,47.6811 -1.0063,48.373 1.2694,1.7535 9.24,1.5725 14.1086,-0.3221 3.1078,-1.2083 4.498,-1.2083 5.9141,0 1.0182,0.8696 3.1047,1.5803 4.6366,1.5803 3.6472,0 6.053,4.0169 6.053,10.106 0,6.3 -2.1302,9.5828 -7.8599,12.1126 -5.4379,2.401 -23.0777,2.6709 -32.3867,0.4953 -6.895,-1.6103 -10.0018,-1.7469 -22.5475,-0.9861 -9.9946,0.6052 -11.3272,-0.6097 -11.3618,-10.3536 -0.036,-10.0471 1.6355,-11.2254 16.548,-11.6707 l 12.6264,-0.3765 -0.441,-5.3894 c -0.2426,-2.9652 -1.0326,-28.7342 -1.7558,-57.2651 -1.2097,-47.7411 -1.5871,-52.5952 -4.734,-60.9199 -2.0372,-5.3894 -4.819,-9.8827 -6.8816,-11.1165 -4.8088,-2.8752 -12.5605,-2.5842 -20.9616,0.7863 -9.3663,3.7592 -25.25,18.5738 -30.8862,28.8074 -8.3995,15.2511 -9.8432,22.1798 -10.3878,49.8533 -0.2769,14.0806 -1.1342,30.7543 -1.9048,37.0533 -1.7929,14.6558 -0.1551,16.4471 18.4512,20.1807 10.7009,2.1478 13.733,5.6516 12.241,14.145 -0.5829,3.3183 -1.5515,6.2879 -2.1524,6.5977 -0.6009,0.311 -14.587,0.9673 -31.0802,1.4593 -25.9977,0.7762 -30.6178,0.6052 -34.7226,-1.2905 z m -580.9469,-2.5387 c -7.8632,-3.1262 -12.6866,-6.7065 -27.9894,-20.7804 -4.1827,-3.8458 -8.2483,-6.9931 -9.0349,-6.9931 -2.3708,0 -5.8237,6.942 -7.8707,15.8241 -2.4727,10.73 -4.4836,13.1455 -9.9667,11.9705 -5.0738,-1.0872 -5.1722,-2.532 -1.0973,-16.1328 2.1758,-7.2629 3.5471,-18.5794 4.6206,-38.1338 1.1739,-21.3846 2.0641,-28.2655 3.8543,-29.7936 2.0513,-1.7513 2.5373,-1.6525 4.0934,0.8296 0.9713,1.5492 2.4579,7.4761 3.3037,13.171 1.2518,8.429 3.0382,12.7512 9.607,23.247 10.1882,16.2783 15.3354,22.6572 23.1355,28.673 5.8499,4.5122 7.0271,4.8409 20.5658,5.7449 19.8376,1.3248 25.6951,-0.8918 34.7719,-13.1611 7.7718,-10.5057 14.4814,-26.6307 14.4859,-34.8143 0,-3.7836 -2.2337,-10.3536 -6.3782,-18.7437 -8.2564,-16.7126 -13.9053,-21.499 -29.1367,-24.6818 -6.0764,-1.2705 -14.244,-2.9907 -18.1504,-3.8236 -25.7703,-5.495 -43.421,-19.8476 -49.8411,-40.5281 -1.5185,-4.8908 -1.6411,-9.7206 -0.4969,-19.5367 2.6097,-22.3863 8.1983,-36.4413 19.5249,-49.1048 8.6534,-9.675 24.6857,-13.1155 36.7946,-7.897 3.2205,1.3881 9.8278,3.4993 14.6823,4.692 10.4903,2.5765 16.0669,6.028 18.7821,11.624 2.3462,4.8353 5.3918,3.6693 6.8674,-2.6297 1.7443,-7.4451 5.4804,-13.5253 7.837,-12.7535 6.0211,1.9723 7.2878,12.2426 3.2289,26.1866 -1.4021,4.8164 -2.9896,16.9435 -3.5279,26.9473 l -0.9783,18.1895 -5.0324,0.4165 c -7.3142,0.6052 -10.0525,-3.7281 -11.0917,-17.5488 -0.506,-6.7321 -1.9527,-13.0344 -3.6448,-15.8785 -1.5433,-2.5931 -3.7297,-6.8054 -4.8589,-9.3585 -4.3697,-9.8816 -16.0242,-17.8587 -26.0912,-17.8587 -9.264,0 -26.6037,10.0815 -31.7496,18.4595 -3.6646,5.9658 -9.7643,26.1332 -9.7808,32.3367 -0.03,11.1132 13.3866,34.459 22.0869,38.4347 1.5825,0.723 7.363,1.3249 12.8453,1.3371 35.1519,0.078 57.4631,12.7624 66.7848,37.9528 4.405,11.905 5.2548,28.4543 2.2682,44.1695 -5.913,31.1141 -43.7945,51.7235 -73.4226,39.9462 z m 141.8987,-0.3387 c -11.7306,-3.5482 -16.5512,-9.1242 -36.8352,-42.6015 -11.5086,-18.9947 -13.5661,-32.9586 -7.8539,-53.2993 1.73,-6.1613 3.1455,-12.99 3.1455,-15.1756 0,-8.791 10.0702,-33.304 18.4296,-44.8603 5.0811,-7.0242 17.3395,-17.983 22.9222,-20.4917 13.4221,-6.0313 41.1549,2.19 58.8907,17.46 10.1906,8.7732 21.0043,24.8494 24.1262,35.8682 2.5332,8.941 3.6101,26.8562 1.9755,32.8643 -2.344,8.6144 -4.5529,9.6472 -14.5208,6.7931 -11.0774,-3.1717 -26.704,-3.1872 -37.4678,-0.033 -7.5125,2.1989 -9.4851,2.2889 -16.9044,0.7685 -7.1589,-1.4659 -10.3205,-1.3904 -21.4084,0.5076 -7.155,1.2249 -13.6311,2.7586 -14.3915,3.4082 -3.7095,3.1662 -3.0229,11.9039 1.6631,21.1558 2.5957,5.1263 5.1779,11.5319 5.7379,14.2361 0.5601,2.703 2.449,6.4678 4.1975,8.3657 4.7685,5.1751 21.5913,15.6864 25.1057,15.6864 1.6937,0 7.1151,-1.2883 12.0473,-2.8641 10.848,-3.4649 26.7961,-16.3672 32.8618,-26.5864 4.8324,-8.1414 5.7691,-8.7211 9.9948,-6.1946 4.6344,2.7708 7.2217,10.4136 5.9589,17.6021 -1.0573,6.0191 -15.5833,26.5053 -22.6829,31.9903 -8.2622,6.3834 -41.0892,9.6095 -54.9918,5.4039 z m 29.4799,-104.8906 c 21.104,-2.2289 29.8205,-4.1435 31.0208,-6.8143 1.6384,-3.6448 -4.454,-16.7792 -9.224,-19.8843 -2.5033,-1.6302 -6.8338,-4.5499 -9.6231,-6.4877 -17.2889,-12.0139 -30.092,-12.045 -37.3095,-0.089 -1.6482,2.7297 -5.592,7.0852 -8.7636,9.6794 -3.1715,2.5931 -7.2244,6.7233 -9.0066,9.1764 -3.4552,4.7565 -6.3432,13.542 -5.0423,15.3388 1.2333,1.7036 27.9851,1.1928 47.9483,-0.9162 z m 294.7615,105.2671 c -13.0282,-4.1601 -16.2619,-7.2385 -29.9215,-28.4854 -15.7488,-24.4963 -19.2128,-32.9509 -19.3216,-47.1592 -0.051,-6.6688 0.763,-14.5514 1.8092,-17.5154 1.0459,-2.9652 2.9728,-11.2076 4.2814,-18.3184 4.7841,-25.9933 19.6906,-51.4314 36.4303,-62.167 6.6264,-4.25 9.1385,-5.0618 15.6711,-5.0674 32.2767,-0.033 68.1497,29.918 73.4312,61.2997 2.284,13.5708 2.0079,25.629 -0.7142,31.1906 -2.6099,5.3329 -1.7879,5.2762 -18.8801,1.3083 -12.115,-2.8119 -15.0789,-2.7531 -29.1616,0.5786 -10.1909,2.4109 -12.6302,2.5531 -19.2008,1.1149 -6.0177,-1.316 -9.8416,-1.2915 -19.0712,0.1233 -21.3273,3.2694 -23.3488,6.7499 -14.7858,25.457 3.0849,6.7398 5.6092,13.2076 5.6092,14.3715 0,4.5543 5.1694,10.1947 15.3254,16.7225 5.8349,3.7503 11.8494,6.8187 13.3655,6.8187 1.5161,0 6.8643,-1.3115 11.8848,-2.9151 11.507,-3.6759 24.5207,-14.0328 32.7783,-26.0867 4.0969,-5.9802 6.7899,-8.61 8.308,-8.1136 1.2352,0.4054 2.5246,0.7363 2.8654,0.7363 2.0237,0 5.4355,8.891 5.4355,14.165 0,7.857 -5.3583,17.3666 -16.2982,28.9251 -6.4273,6.791 -10.0073,9.2986 -16.1062,11.2809 -10.3587,3.3683 -35.499,4.3655 -43.7341,1.7358 z m 36.2488,-105.9435 c 16.8037,-2.4165 21.673,-4.2433 22.2275,-8.339 0.2685,-1.9845 -1.0361,-6.6322 -2.8996,-10.3303 -2.5837,-5.1273 -5.4502,-7.9481 -12.0797,-11.8883 -22.8944,-13.6053 -33.0641,-14.6692 -39.3592,-4.1146 -1.4234,2.3866 -5.9688,7.4151 -10.1008,11.1743 -11.2207,10.2092 -17.1089,21.7422 -12.9909,25.4425 1.5079,1.356 42.2266,-0.078 55.2027,-1.9446 z m -185.0178,102.4464 c -1.7363,-0.613 -4.9235,-2.7375 -7.083,-4.7209 -3.3689,-3.0951 -3.9865,-5.0763 -4.3495,-13.9584 -0.2332,-5.7071 -1.8225,-13.9773 -3.5429,-18.435 -1.7161,-4.4466 -3.82,-12.3592 -4.6754,-17.5843 -1.9323,-11.8017 -4.6185,-21.9832 -13.49,-51.1338 -3.8341,-12.598 -8.1925,-28.2711 -9.6855,-34.8288 -2.8858,-12.6768 -4.468,-14.3782 -11.0047,-11.835 -3.1947,1.2427 -5.0413,1.0305 -10.0542,-1.1528 -7.523,-3.2761 -11.0916,-7.3995 -11.0598,-12.779 0.028,-4.7575 0.949,-6.1157 6.2455,-9.2097 3.2718,-1.9112 8.0487,-2.2799 29.5567,-2.2799 29.3334,0 29.102,-0.089 31.2008,12.5991 l 1.0807,6.5355 -6.2362,-0.8984 c -5.5095,-0.7952 -6.6213,-0.482 -9.5398,2.6853 -3.9535,4.2911 -3.4413,10.1914 2.336,26.9106 7.1759,20.7682 11.4701,36.4779 13.0747,47.8332 2.3181,16.405 10.1593,48.1798 12.3514,50.051 3.9535,3.3761 9.2033,-14.2449 15.3142,-51.3992 1.1579,-7.0397 5.4182,-24.2286 9.4678,-38.197 4.0495,-13.9695 7.1446,-26.914 6.8783,-28.7675 -0.368,-2.5609 -1.9649,-3.8014 -6.654,-5.1707 -6.9572,-2.0312 -11.1444,-5.2395 -12.7236,-9.7516 -0.8352,-2.3866 0.1421,-4.1024 4.4121,-7.7483 l 5.485,-4.682 h 26.1676 26.1677 l 3.1887,5.3361 c 5.7034,9.544 4.0304,12.2937 -8.6776,14.2616 -13.8032,2.1378 -18.4242,6.8431 -20.4494,20.8238 -0.5904,4.0756 -5.218,24.0854 -10.2835,44.4638 -5.0654,20.3795 -9.6674,39.7829 -10.2266,43.1168 -1.3537,8.0714 -8.2913,35.2686 -11.2564,44.1273 l -2.3677,7.0742 -8.2053,-0.089 c -4.5131,-0.044 -9.626,-0.5875 -11.3621,-1.2005 z"
       style="fill:#000000;stroke-width:1.45829" />
    <path
       d="m 3861.1898,784.54426 c -17.1359,-4.91949 -35.0242,-13.13719 -45.5834,-28.07722 -4.3074,-13.19145 18.1838,-5.89715 25.9476,-8.03763 14.8695,-0.0464 29.7391,-0.0145 44.6086,-0.024 -18.9963,-30.26335 -23.5601,-66.7192 -27.9072,-101.45981 0.1771,-14.00877 -5.9532,-29.58126 -1.0096,-42.61498 11.9131,-5.80776 25.9577,-3.43359 38.8201,-4.33062 52.8737,0.2343 105.7814,-0.61151 158.6294,1.26598 7.6266,2.81069 4.7573,14.13085 6.141,21.16819 -0.3673,5.03654 7.2825,2.02115 10.6479,3.30888 13.7466,0.1235 30.2459,5.01719 34.6967,19.6723 7.3857,26.78635 1.2579,59.57526 -21.2259,77.58739 -11.1162,9.09097 -25.9888,9.28733 -39.587,9.64932 -8.3381,1.11193 -11.2932,9.92867 -15.9479,15.75335 25.7656,0.32078 51.604,-0.85369 77.3092,1.05269 7.1625,9.79849 -12.5795,20.36274 -20.5527,25.44864 -13.8254,8.33332 -29.8249,11.68677 -45.8413,11.26664 -57.0525,1.393 -114.1915,1.77484 -171.2161,-0.73875 -2.6499,-0.21035 -5.3203,-0.34783 -7.9294,-0.89042 z m 207.0949,-72.50945 c 16.6187,-10.25308 22.8042,-31.9433 21.5865,-50.51943 1.0507,-14.37098 -13.4921,-21.86631 -25.9223,-17.88783 -11.3975,7.63497 -6.5488,24.42716 -10.7348,36.04592 -0.064,11.38586 -9.5953,26.33884 -1.8724,35.72025 5.7716,0.40881 11.6468,-1.15863 16.943,-3.35891 z"
       style="fill:#000000;stroke-width:1.6129"
       id="path5341" />
    <path
       d="m 3957.2192,555.77537 c -3.9866,-2.61694 -7.5799,-6.65577 -7.7662,-11.73641 -0.29,-6.74569 2.5372,-13.09789 5.074,-19.16195 3.8097,-8.39144 8.0185,-16.5855 12.0298,-24.87701 4.5702,9.55124 9.3918,18.98069 13.6747,28.67224 2.1607,5.13962 4.531,10.76423 3.212,16.46339 -1.1013,5.87877 -5.9556,10.18981 -11.2208,12.26105 -4.7621,2.10176 -10.4875,1.58432 -14.7557,-1.45333 z"
       style="fill:#000000;stroke-width:1.31885"
       id="path5338" />
  </g>
</svg>
